<?xml version="1.0" encoding="UTF-8" standalone="no"?>
<svg xmlns:svg="http://www.w3.org/2000/svg" xmlns="http://www.w3.org/2000/svg" version="1.1" width="1004.157" height="153.80901" viewBox="0 0 1004.157 153.80901">
  <g transform="matrix(1.1858585,0,0,1.1858585,0,-0.352611)">
    <g transform="matrix(0.79463573,0,0,0.79463573,-26.509048,-26.980288)">
      <g>
        <path d="m 63.063,91.115 15.237,0 0,25.497 c 0,1.581 0.106,3.159 0.319,4.728 0.394,2.895 1.921,5.514 4.246,7.285 1.516,1.151 3.303,1.889 5.187,2.146 1.233,0.168 2.474,0.269 3.716,0.308 8.413,0.242 16.828,0.242 25.242,0 1.241,-0.039 2.482,-0.139 3.713,-0.308 2.895,-0.392 5.516,-1.919 7.283,-4.246 1.154,-1.514 1.895,-3.3 2.149,-5.186 0.212,-1.568 0.32,-3.147 0.32,-4.728 l 0,-42.483 -18.742,0 0,36.36 c 0,0.637 -0.062,1.273 -0.186,1.898 -0.127,0.652 -0.414,1.263 -0.836,1.774 -0.674,0.819 -1.645,1.338 -2.699,1.442 -2.411,0.238 -4.837,0.238 -7.25,0 -0.659,-0.063 -1.292,-0.293 -1.844,-0.661 -0.878,-0.596 -1.488,-1.514 -1.692,-2.555 -0.121,-0.625 -0.183,-1.261 -0.183,-1.898 l 0,-36.36 -33.98,0 0,-10.855 132.455,0 -34.499,-28.946 -114.231,0 c -1.458,0 -2.914,0.121 -4.352,0.365 -2.783,0.472 -5.264,2.031 -6.896,4.33 -0.927,1.305 -1.547,2.802 -1.814,4.38 -0.244,1.439 -0.366,2.895 -0.366,4.352 l 0,83.48 29.702,0 0,-40.119 z" style="fill:#e53517" />
        <path d="m 141.107,74.128 0,42.973 c 0,2.303 -0.139,4.602 -0.417,6.89 -0.435,3.55 -1.826,6.917 -4.032,9.733 -3.212,4.104 -7.924,6.764 -13.097,7.396 -2.289,0.278 -4.587,0.42 -6.892,0.42 l -71.016,0 21.031,17.647 54.914,0 c 4.125,0 8.239,-0.478 12.256,-1.417 8.512,-1.991 15.884,-7.283 20.492,-14.712 1.893,-3.047 3.273,-6.378 4.09,-9.87 0.941,-4.016 1.415,-8.131 1.415,-12.256 l 0,-46.804 -18.744,0 z" style="fill:#e53517" />
        <rect height="57.105" width="18.743" y="74.127998" x="170.265" style="fill:#e53517" />
        <path d="m 199.422,169.488 -120.459,0 33.441,28.062 101.289,0 c 1.871,0 3.739,-0.163 5.586,-0.482 2.778,-0.486 5.251,-2.056 6.874,-4.361 0.741,-1.054 1.283,-2.233 1.604,-3.479 0.159,-0.625 0.292,-1.253 0.396,-1.89 0.282,-1.732 0.425,-3.483 0.425,-5.239 l 0,-91.082 -29.156,-24.467 0,102.938 z" style="fill:#e53517" />
      </g>
    </g>
    <g style="fill:#000000" transform="matrix(1.4425683,0,0,1.4425683,160.54096,-404.32911)">
      <g style="fill:#000000" transform="matrix(0.99772747,0,0,0.99772747,0.07439582,0.83690034)">
        <path style="fill:#000000" d="m 32.737,365.896 c 0,0 0,-54.978 0,-60.648 0,-5.605 -0.097,-10.876 9.691,-10.874 5.452,0 39.714,0 39.714,0 l 0,10.739 -27.934,0 0,18.712 26.483,0 0,10.925 -26.483,0 0,31.146 -21.471,0 z" />
        <rect style="fill:#000000" x="224.90199" y="294.37201" width="20.778999" height="71.522003" />
        <path style="fill:#000000" d="m 156.8,343.99 c 0,-1.482 -0.006,-3.118 -0.011,-4.784 l 19.991,0 c 0,0 0,7.792 0,10.234 0,2.445 -0.142,8.025 6.853,8.123 5.649,0.081 7.508,-2.185 7.521,-7.676 0.012,-5.491 0,-55.515 0,-55.515 l 20.788,0 c 0,0 0,38.31 0,47.375 0,9.065 -1.294,17.229 -9.714,22.617 -9.269,5.928 -28.988,4.417 -36.149,0.038 -9.235,-5.646 -9.278,-13.571 -9.279,-20.412 z" />
        <path style="fill:#000000" d="m 394.687,365.895 c 0,0 -26.273,0 -32.252,0 -7.485,0 -12.122,-0.228 -12.104,-9.76 0.014,-6.67 0,-61.763 0,-61.763 l 20.758,0 0,60.844 23.597,0 0,10.679 z" />
        <polygon style="fill:#000000" points="442.954,365.895 425.594,365.895 411.625,315.631 411.625,365.895 400.172,365.895 400.172,294.372 423.295,294.372 435.623,341.319 448.15,294.372 476.713,294.372 476.713,365.895 456.554,365.895 456.577,315.271 " />
        <path style="fill:#000000" d="m 88.993,294.372 20.465,0 c 0,0 0,48.319 0,53.64 0,4.606 0.74,6.708 2.936,7.977 3.678,2.127 10.875,2.125 14.569,0.059 2.042,-1.144 3.18,-2.759 3.197,-7.701 0.017,-5.502 0,-53.975 0,-53.975 l 20.393,0 c 0,0 0,33.922 0,46.845 0,3.543 0.127,11.527 -2.605,16.097 -2.222,3.714 -5.893,7.227 -12.427,9.059 -8.975,2.516 -22.611,2.456 -30.977,-0.058 -9.053,-2.719 -15.535,-8.118 -15.552,-19.832 -0.019,-11.713 10e-4,-52.111 10e-4,-52.111 z" />
        <path style="fill:#000000" d="m 259.192,365.896 c 0,0 0,-54.978 0,-60.648 0,-5.605 -0.098,-10.876 9.689,-10.874 5.453,0 39.713,0 39.713,0 l 0,10.739 -27.932,0 0,18.712 26.483,0 0,10.925 -26.483,0 0,31.146 -21.47,0 z" />
        <rect style="fill:#000000" x="316.01001" y="294.37201" width="20.778999" height="71.522003" />
      </g>
    </g>
  </g>
</svg>
