<svg xmlns="http://www.w3.org/2000/svg" width="300" height="75" viewBox="0 0 300 75">
<g transform="scale(0.125000000,0.125000000)">
<g fill="#717175" transform="translate(0.000000,600.000000) scale(0.100000,-0.100000)">

<path d="M10900 5981 c0 -12 -15 -26 -45 -40 -25 -12 -49 -21 -54 -21 -5 0
-36 -23 -70 -51 -58 -49 -138 -155 -161 -215 -18 -45 -40 -170 -40 -224 0 -72
27 -188 55 -234 13 -23 33 -57 44 -76 33 -60 122 -136 213 -184 69 -37 103
-48 168 -57 272 -37 500 91 611 342 38 84 43 104 47 190 5 105 -6 159 -57 272
-48 108 -178 231 -265 251 -19 5 -32 16 -39 36 l-11 30 -198 0 c-187 0 -198
-1 -198 -19z"/>
<path d="M2080 5429 c-72 -8 -296 -56 -390 -84 -76 -22 -272 -94 -284 -104 -7
-6 -41 -23 -77 -38 -35 -16 -82 -40 -104 -54 -22 -14 -62 -39 -89 -55 -138
-82 -258 -175 -385 -298 -105 -102 -232 -246 -266 -301 -10 -16 -27 -39 -37
-51 -33 -38 -98 -148 -186 -319 -42 -80 -92 -201 -106 -255 -8 -30 -24 -80
-35 -110 -27 -72 -37 -126 -60 -358 -19 -181 -30 -230 -52 -216 -5 3 -9 -489
-9 -1169 l0 -1174 59 -27 c66 -29 100 -31 253 -15 232 24 459 169 578 369 19
30 39 62 46 70 17 21 65 195 71 255 2 28 5 437 7 910 2 829 3 864 23 971 12
61 32 137 46 170 13 32 30 77 37 99 7 22 24 58 37 80 14 22 39 63 56 92 91
148 193 264 315 357 63 47 213 145 225 146 4 0 38 15 75 33 73 36 270 90 397
108 183 26 491 -23 668 -106 42 -19 78 -35 81 -35 11 0 165 -98 205 -130 124
-100 261 -237 261 -261 0 -5 13 -23 28 -41 16 -18 44 -60 62 -93 18 -33 38
-66 44 -74 10 -13 40 -88 85 -216 10 -27 26 -104 35 -170 15 -104 17 -234 19
-985 l2 -865 27 -95 c31 -111 37 -125 86 -207 89 -148 214 -255 387 -329 87
-37 115 -44 221 -55 138 -13 224 -6 248 20 15 16 16 125 16 1203 0 675 -4
1228 -10 1285 -12 133 -58 384 -82 453 -10 30 -28 87 -40 125 -11 39 -33 95
-48 125 -16 30 -33 71 -39 91 -6 19 -27 59 -46 89 -19 30 -35 59 -35 66 0 6
-18 36 -40 67 -22 30 -40 60 -40 65 0 5 -14 27 -30 48 -17 22 -57 73 -89 114
-174 223 -465 476 -658 573 -28 15 -54 30 -57 35 -3 5 -36 21 -73 37 -37 16
-79 36 -93 45 -14 10 -50 25 -80 34 -30 10 -86 30 -125 46 -84 34 -355 96
-480 110 -106 12 -448 11 -555 -1z"/>
<path d="M13255 5428 c-44 -5 -109 -15 -145 -23 -36 -8 -110 -24 -165 -35 -55
-12 -140 -37 -190 -55 -49 -18 -101 -37 -115 -41 -89 -25 -436 -216 -540 -296
-109 -84 -163 -129 -225 -184 -72 -64 -232 -240 -280 -305 -60 -83 -165 -243
-165 -251 0 -5 -11 -24 -24 -41 -26 -35 -120 -226 -131 -267 -4 -14 -19 -50
-33 -80 -14 -30 -33 -86 -43 -125 -9 -38 -29 -114 -43 -167 -34 -131 -59 -360
-59 -548 0 -162 24 -414 48 -509 66 -256 108 -379 180 -526 19 -38 35 -74 35
-79 0 -4 14 -28 30 -53 17 -25 42 -66 56 -92 13 -25 49 -80 79 -121 30 -41 63
-86 72 -100 9 -14 62 -76 117 -138 130 -149 279 -280 433 -382 45 -30 97 -65
115 -77 18 -13 58 -35 88 -50 30 -16 71 -38 90 -49 19 -12 58 -30 85 -40 28
-10 59 -24 71 -31 77 -49 453 -146 665 -172 132 -17 477 -15 584 3 194 32 352
66 405 86 30 12 82 30 115 39 132 40 401 179 567 293 220 151 468 400 615 616
77 112 122 185 129 205 4 12 24 52 45 88 22 36 39 69 39 74 0 5 15 43 34 85
66 145 114 316 151 535 36 207 36 213 32 435 -4 207 -7 240 -40 410 -20 102
-50 223 -66 270 -17 47 -31 91 -31 99 0 15 -68 172 -102 236 -12 22 -35 67
-51 100 -16 33 -39 74 -52 90 -12 17 -32 48 -44 70 -57 104 -231 315 -365 442
-175 165 -478 374 -631 435 -27 10 -60 26 -72 33 -39 26 -272 105 -381 130
-200 47 -238 54 -341 64 -121 13 -432 12 -546 -1z m565 -972 c285 -76 383
-120 590 -263 77 -53 276 -255 333 -338 66 -97 127 -200 139 -238 6 -18 23
-59 38 -92 42 -93 93 -339 98 -475 5 -166 -49 -459 -107 -578 -17 -34 -31 -67
-31 -74 0 -14 -82 -158 -124 -216 -59 -83 -130 -167 -191 -226 -58 -57 -236
-196 -250 -196 -4 0 -20 -9 -36 -21 -53 -38 -263 -126 -350 -147 -194 -47
-245 -55 -384 -55 -147 -1 -170 2 -410 59 -133 31 -329 127 -475 233 -73 53
-218 189 -263 248 -66 86 -156 217 -157 227 0 5 -18 44 -40 87 -22 43 -40 83
-40 89 0 7 -13 45 -30 86 -56 141 -81 382 -60 597 6 70 18 151 25 180 19 77
93 278 109 296 7 9 23 37 33 62 78 177 300 415 517 553 156 99 401 190 581
216 90 13 419 4 485 -14z"/>
<path d="M17445 5419 c-184 -22 -398 -143 -513 -293 -81 -105 -118 -179 -143
-291 -18 -76 -19 -180 -19 -2138 0 -1381 3 -2064 10 -2076 17 -33 74 -44 187
-37 116 7 298 57 361 98 20 14 57 37 81 52 57 37 167 149 199 206 14 25 31 52
39 61 14 17 70 168 84 229 13 53 12 4136 -1 4160 -5 10 -20 22 -32 26 -31 10
-178 11 -253 3z"/>
<path d="M5515 5200 c-48 -19 -46 34 -42 -1241 3 -1177 4 -1207 25 -1359 25
-175 47 -286 68 -335 7 -18 23 -68 34 -111 12 -44 29 -93 39 -110 10 -16 28
-60 40 -97 13 -37 27 -70 32 -73 6 -3 25 -36 43 -73 18 -37 42 -80 53 -97 11
-16 32 -47 46 -69 27 -42 69 -101 125 -176 89 -119 324 -347 442 -428 125 -87
198 -135 229 -150 20 -10 65 -33 101 -52 91 -48 198 -95 245 -109 22 -7 68
-23 102 -36 55 -22 334 -82 454 -99 89 -12 491 -6 574 9 259 45 500 112 615
171 25 13 74 37 110 54 206 98 401 235 583 410 71 67 226 244 252 286 10 17
28 41 40 55 36 42 125 193 176 300 17 36 44 90 59 120 16 30 35 82 44 116 9
33 25 82 37 109 12 26 32 107 46 179 13 72 31 165 40 206 14 66 17 232 20
1324 4 1191 3 1249 -14 1268 -17 19 -28 20 -198 16 -196 -5 -212 -9 -340 -74
-140 -72 -260 -189 -339 -330 -84 -153 -79 -93 -86 -1114 l-6 -905 -27 -139
c-25 -125 -76 -274 -122 -356 -48 -87 -87 -150 -96 -155 -5 -4 -20 -23 -33
-43 -87 -139 -363 -359 -526 -421 -30 -12 -64 -26 -74 -32 -28 -16 -64 -26
-206 -56 -169 -36 -354 -37 -520 -5 -126 25 -203 47 -236 68 -12 7 -47 22 -77
33 -31 10 -71 31 -90 45 -19 14 -39 26 -45 26 -21 0 -180 126 -262 209 -81 82
-188 222 -213 279 -7 15 -24 48 -40 73 -15 25 -33 66 -41 90 -8 24 -26 77 -40
116 -48 134 -49 154 -56 1133 l-6 925 -35 100 c-48 139 -113 238 -217 335 -94
87 -216 155 -328 184 -67 17 -322 22 -359 6z"/>
</g>
<g fill="#c5470c" transform="translate(0.000000,600.000000) scale(0.100000,-0.100000)">

<path d="M20690 5429 c-68 -7 -124 -18 -333 -64 -113 -25 -325 -102 -452 -165
-316 -155 -559 -339 -769 -582 -125 -145 -155 -183 -215 -278 -26 -41 -61 -95
-77 -120 -15 -25 -38 -68 -50 -96 -11 -28 -30 -64 -40 -80 -11 -16 -26 -49
-34 -74 -8 -25 -24 -65 -36 -90 -13 -25 -33 -81 -44 -125 -12 -44 -32 -114
-45 -155 -84 -267 -86 -890 -3 -1167 11 -38 30 -106 42 -153 13 -47 32 -103
44 -126 11 -22 30 -69 42 -105 12 -35 28 -71 35 -79 7 -8 29 -49 49 -90 45
-92 75 -143 146 -243 222 -316 397 -481 750 -709 30 -20 77 -45 103 -57 26
-11 60 -29 75 -39 15 -10 50 -27 77 -36 28 -10 61 -25 74 -33 35 -22 244 -92
336 -112 96 -22 234 -47 330 -62 91 -14 449 -13 545 1 150 21 386 70 440 91
30 11 82 29 115 38 33 10 83 29 110 43 28 14 61 29 74 33 33 10 210 106 292
158 181 115 272 189 434 351 158 158 207 222 371 476 37 57 104 190 129 257
13 34 30 72 39 85 8 13 24 57 35 98 11 41 30 101 41 134 24 66 63 285 81 451
25 231 -15 655 -80 855 -15 47 -34 108 -41 135 -8 28 -29 81 -47 120 -18 38
-33 76 -33 85 0 8 -15 40 -34 71 -19 31 -37 67 -41 80 -7 23 -77 137 -116 189
-10 14 -26 39 -35 55 -31 54 -177 228 -274 326 -82 82 -190 175 -311 269 -61
47 -250 159 -329 195 -30 14 -73 34 -94 46 -95 52 -312 118 -566 174 -153 33
-512 45 -710 24z m580 -978 c157 -42 216 -62 287 -96 40 -19 77 -35 81 -35 10
0 111 -64 202 -127 108 -76 263 -237 358 -375 47 -68 114 -195 137 -262 14
-38 29 -74 34 -80 14 -16 57 -239 71 -366 13 -115 7 -203 -31 -405 -22 -115
-87 -297 -138 -382 -16 -26 -37 -62 -47 -79 -74 -124 -238 -311 -334 -379 -23
-16 -55 -41 -71 -53 -39 -31 -206 -132 -219 -132 -5 0 -42 -15 -82 -34 -83
-38 -288 -89 -428 -107 -55 -6 -135 -8 -190 -5 -132 10 -398 70 -485 111 -38
18 -81 36 -95 40 -14 4 -32 13 -40 20 -8 7 -46 31 -85 54 -117 70 -155 101
-275 221 -111 110 -199 227 -250 330 -12 25 -28 52 -35 60 -7 8 -22 42 -33 75
-11 33 -32 90 -46 126 -38 101 -69 346 -62 489 8 169 33 312 71 410 19 47 37
99 41 116 4 16 15 40 24 54 10 14 32 52 49 85 44 82 65 113 147 213 78 96 134
150 239 232 129 102 323 204 455 240 41 12 99 28 129 36 95 27 171 33 361 29
145 -3 201 -8 260 -24z"/>
<path d="M23360 1150 c-116 -9 -187 -33 -277 -92 -312 -209 -328 -679 -31
-910 59 -46 93 -62 188 -89 56 -15 93 -37 85 -49 -4 -6 26 -10 74 -10 64 0 81
3 81 14 0 15 95 56 128 56 38 0 121 50 183 111 93 92 115 124 138 210 28 106
38 129 56 129 12 0 15 14 15 75 0 59 -3 75 -15 75 -20 0 -32 27 -54 115 -16
61 -30 89 -75 148 -79 103 -176 170 -291 199 -86 23 -110 25 -205 18z"/>
</g>
</g>
</svg>
