<?xml version="1.0" encoding="utf-8"?>
<!-- Generator: Adobe Illustrator 15.1.0, SVG Export Plug-In  -->
<!DOCTYPE svg PUBLIC "-//W3C//DTD SVG 1.1//EN" "http://www.w3.org/Graphics/SVG/1.1/DTD/svg11.dtd" [
	<!ENTITY ns_flows "http://ns.adobe.com/Flows/1.0/">
]>
<svg version="1.1"
	 xmlns="http://www.w3.org/2000/svg" xmlns:xlink="http://www.w3.org/1999/xlink" xmlns:a="http://ns.adobe.com/AdobeSVGViewerExtensions/3.0/"
	 x="0px" y="0px" width="360px" height="60px" viewBox="-0.257 -0.032 360 60" enable-background="new -0.257 -0.032 360 60"
	 xml:space="preserve">
<defs>
</defs>
<path fill-rule="evenodd" clip-rule="evenodd" d="M316.944,0.512c-23.496,0-42.541,9.487-42.541,21.188
	c0,11.702,19.045,21.19,42.541,21.19s42.541-9.488,42.541-21.19C359.485,9.999,340.44,0.512,316.944,0.512z M311.011,37.937
	c-16.693,0-30.225-7.415-30.225-16.562c0-9.146,13.531-16.561,30.225-16.561s30.225,7.415,30.225,16.561
	C341.235,30.522,327.704,37.937,311.011,37.937z"/>
<path fill-rule="evenodd" clip-rule="evenodd" d="M228.452,0.512c-7.602,0-14.734,0.995-20.908,2.734v3.744
	c4.412-1.384,9.523-2.175,14.973-2.175c16.693,0,30.225,7.415,30.225,16.561c0,9.147-13.531,16.562-30.225,16.562
	c-11.688,0-21.816-3.639-26.846-8.958V16.57h-0.012V0h-15.355v59.937h15.367v-24.73c7.803,4.693,19.59,7.684,32.781,7.684
	c23.496,0,42.541-9.488,42.541-21.19C270.993,9.999,251.948,0.512,228.452,0.512z"/>
<path fill-rule="evenodd" clip-rule="evenodd" d="M135.044,0.512c-7.602,0-14.734,0.995-20.908,2.734v3.744
	c4.412-1.384,9.523-2.175,14.973-2.175c16.693,0,30.226,7.415,30.226,16.561c0,9.147-13.532,16.562-30.226,16.562
	c-11.688,0-21.818-3.639-26.847-8.958V16.57h-0.012V0H86.896v59.937h15.366v-24.73c7.804,4.693,19.592,7.684,32.782,7.684
	c23.495,0,42.541-9.488,42.541-21.19C177.585,9.999,158.54,0.512,135.044,0.512z"/>
<path fill-rule="evenodd" clip-rule="evenodd" d="M42.541,0.512C19.046,0.512,0,9.999,0,21.7c0,11.702,19.046,21.19,42.541,21.19
	c23.496,0,42.542-9.488,42.542-21.19C85.083,9.999,66.037,0.512,42.541,0.512z M36.606,37.937c-16.692,0-30.224-7.415-30.224-16.562
	c0-9.146,13.531-16.561,30.224-16.561c16.693,0,30.224,7.415,30.224,16.561C66.831,30.522,53.3,37.937,36.606,37.937z"/>
</svg>
